<?xml version="1.0" encoding="UTF-8" standalone="no"?>
<!-- Created with Inkscape (http://www.inkscape.org/) -->

<svg
   width="102.13306mm"
   height="97.233398mm"
   viewBox="0 0 102.13306 97.233398"
   version="1.1"
   id="svg1"
   xml:space="preserve"
   xmlns="http://www.w3.org/2000/svg"
   xmlns:svg="http://www.w3.org/2000/svg"><defs
     id="defs1"><rect
       x="451.80615"
       y="346.04245"
       width="278.27151"
       height="288.53983"
       id="rect3" /></defs><g
     id="layer1"
     transform="translate(-77.069251,-73.399986)"><g
       id="g52"><path
         style="fill:#90c2e7;fill-opacity:1;stroke-width:1.06949"
         d="m 80.453822,170.38338 c -2.49155,-0.26505 -2.96666,-0.45021 -3.1863,-1.24176 -0.35444,-1.27733 0.15352,-2.92546 1.25126,-4.05983 1.06505,-1.1006 1.06505,-1.1006 0.27502,-2.05598 -2.87685,-3.47902 -2.08402,-7.78767 1.85289,-10.06957 1.28479,-0.74468 1.28479,-0.74468 0.7444,-1.53048 -0.96889,-1.40888 -0.1865,-3.42789 1.32833,-3.42789 0.38143,0 0.50788,-0.34117 0.64496,-1.74015 0.28293,-2.8875 0.66181,-3.32209 1.91031,-2.19119 0.73538,0.66611 0.73538,0.66611 9.99579,0.46066 5.093228,-0.11301 9.993478,-0.33222 10.889438,-0.48715 2.24918,-0.38892 2.43156,-0.25962 2.52567,1.79061 0.0759,1.65362 0.11389,1.73295 1.09078,2.2787 1.36218,0.76099 1.6913,1.64238 1.22141,3.27095 -0.26118,0.90521 -0.28063,1.29642 -0.0685,1.37731 0.8825,0.33648 3.14039,2.4951 3.56336,3.40669 1.01999,2.1983 0.34638,5.87043 -1.33817,7.29499 -1.0424,0.88152 -1.02873,1.01586 0.17172,1.68821 1.14149,0.63934 1.64629,1.60672 1.65183,3.16554 0.006,1.55001 -0.42324,1.80734 -3.49642,2.09858 -3.28315,0.31114 -28.049428,0.2886 -31.027808,-0.0282 z m 22.324208,-1.55242 c 5.19245,-0.0487 5.19245,-0.0487 -0.41213,-0.26471 -6.055338,-0.23334 -6.963128,-0.37001 -6.963128,-1.0484 0,-0.45894 0.21621,-0.53868 2.64584,-0.97601 1.03954,-0.18711 -1.30329,-0.31529 -8.20208,-0.44874 -9.65729,-0.18681 -9.65729,-0.18681 -10.25129,0.61897 -0.763,1.03503 -0.7492,1.20837 0.12653,1.5892 0.71228,0.30976 15.62202,0.91296 17.10314,0.69196 0.41837,-0.0625 3.09728,-0.13546 5.953118,-0.16227 z m -8.833078,-1.16662 c -0.0914,-0.16911 -0.57464,-0.25598 -1.07394,-0.19303 -0.4993,0.0629 -0.90782,-0.003 -0.90782,-0.14649 0,-0.14351 0.53578,-0.26092 1.19063,-0.26092 0.88194,0 1.19062,0.11769 1.19062,0.45395 0,0.52631 -0.16213,0.58577 -0.39949,0.14649 z m -13.45452,-0.44912 c 0.0838,-0.24968 0.0304,-0.45395 -0.11855,-0.45395 -0.14896,0 -0.33089,0.17022 -0.40429,0.37828 -0.0797,0.226 -0.14186,0.16508 -0.15434,-0.15131 -0.0214,-0.54265 0.40628,-0.67152 1.1481,-0.34592 0.59548,0.26138 0.51919,1.02686 -0.10235,1.02686 -0.35429,0 -0.47216,-0.14519 -0.36857,-0.45396 z m 1.5099,-0.013 c -0.0862,-0.25686 -0.0853,-0.54864 0.002,-0.6484 0.18844,-0.21554 0.96512,0.46835 0.96512,0.84982 0,0.45671 -0.8023,0.2896 -0.96703,-0.20142 z m 1.23161,-0.0121 c 0,-0.26354 0.14139,-0.42526 0.3142,-0.35937 0.49059,0.18704 0.57196,0.83855 0.10473,0.83855 -0.23041,0 -0.41893,-0.21563 -0.41893,-0.47918 z m 1.64523,0.12979 c 0.13733,-0.47124 0.72926,-0.55377 0.75,-0.10454 0.008,0.16644 -0.18462,0.34968 -0.42735,0.4072 -0.27588,0.0653 -0.39683,-0.048 -0.32265,-0.30264 z m 1.79436,-0.10454 c 0,-0.24968 0.17859,-0.45395 0.39687,-0.45395 0.21828,0 0.39688,0.20427 0.39688,0.45395 0,0.24967 -0.1786,0.45396 -0.39688,0.45396 -0.21828,0 -0.39687,-0.20429 -0.39687,-0.45396 z m 1.22723,0 c -0.0838,-0.24968 -0.037,-0.45395 0.10399,-0.45395 0.14095,0 0.25628,0.20427 0.25628,0.45395 0,0.24967 -0.0468,0.45396 -0.10399,0.45396 -0.0572,0 -0.17251,-0.20429 -0.25628,-0.45396 z m 0.88943,0 c 0,-0.24968 0.1786,-0.45395 0.39688,-0.45395 0.21828,0 0.39687,0.20427 0.39687,0.45395 0,0.24967 -0.17859,0.45396 -0.39687,0.45396 -0.21828,0 -0.39688,-0.20429 -0.39688,-0.45396 z m 1.17339,0.11941 c -0.17268,-0.31959 -0.18506,-0.31231 0.74484,-0.43842 0.43455,-0.0589 0.72753,0.0463 0.72742,0.26148 -2.2e-4,0.42242 -1.25795,0.57358 -1.47226,0.17694 z m 23.221198,-0.0286 c -0.24694,-0.28247 -0.3175,-0.20176 -0.3175,0.36316 0,0.56491 0.0706,0.64562 0.3175,0.36316 0.24695,-0.28247 0.24695,-0.44387 0,-0.72632 z m -18.448628,-2.04476 c 0.0761,-0.14096 -1.2603,-0.33571 -2.96989,-0.4328 -1.7096,-0.0971 -4.70742,-0.31292 -6.66183,-0.4796 -3.57243,-0.3047 -4.05009,-0.26235 -3.5459,0.31435 0.46498,0.53185 12.90825,1.09657 13.17762,0.59805 z m 15.912598,-2.61201 c 0.59881,-0.0823 1.31318,-0.35555 1.5875,-0.60702 0.48495,-0.44457 0.48411,-0.45302 -0.0304,-0.30579 -2.91671,0.83462 -17.856258,0.92074 -28.286858,0.16304 -4.19957,-0.30506 -4.86714,-0.23251 -3.03974,0.33032 2.134,0.65727 25.634918,0.9884 29.769528,0.41945 z M 92.911872,160.4346 c -0.39856,-0.50375 -1.21326,-2.99388 -1.21326,-3.70834 0,-0.14 0.14882,-0.25689 0.33073,-0.25977 0.1819,-0.003 0.58553,-0.30929 0.89696,-0.68093 0.31143,-0.37163 0.96627,-0.93812 1.45521,-1.25887 0.88897,-0.58318 0.88897,-0.58318 -0.23551,0.82548 -2.13733,2.67749 -0.99049,5.65908 2.17671,5.65908 3.24563,0 4.268518,-3.87469 1.71947,-6.51331 -1.14181,-1.18193 -3.87703,-0.8147 -5.83999,0.78408 -0.39466,0.32144 -0.84427,0.58443 -0.99914,0.58443 -0.55418,0 0.01,-0.82761 0.95013,-1.39393 1.43644,-0.86523 1.37263,-1.25404 -0.24106,-1.46882 -2.59414,-0.34527 -8.6823,-0.33585 -8.88576,0.0137 -0.10521,0.18077 -0.87729,0.82698 -1.71574,1.43603 -2.83932,2.06247 -3.67819,5.99337 -1.2669,5.93664 0.67468,-0.0159 0.67468,-0.0159 0.0794,-0.49087 -0.7824,-0.62426 -0.75103,-1.1158 0.13229,-2.07322 1.88119,-2.03901 3.36277,-2.19168 6.03951,-0.62233 1.83184,1.07399 1.83184,1.07399 3.48549,0.66248 1.84559,-0.45928 1.97863,-0.33554 0.92945,0.86453 -1.02118,1.16805 -2.18622,2.07686 -2.18622,1.70539 0,-0.17257 -0.18316,-0.23336 -0.40702,-0.1351 -0.2659,0.11671 -0.99182,-0.46367 -2.09377,-1.67399 -1.82062,-1.99968 -2.35986,-2.19321 -3.96871,-1.42431 -1.07304,0.51283 -1.42745,1.22285 -1.22126,2.4467 0.18343,1.08872 1.00498,1.2199 8.19478,1.30842 4.25333,0.0524 4.33133,0.0419 3.88424,-0.52321 z m 2.6232,-0.0791 c -1.95253,-1.23522 -2.27602,-2.97397 -0.90678,-4.87401 1.06696,-1.48057 1.94396,-1.50236 3.22427,-0.0801 1.714,1.90401 1.4866,3.61011 -0.65071,4.88208 -0.84692,0.50403 -0.97516,0.50957 -1.66678,0.0721 z m 1.50052,-1.05559 c 0.69282,-0.71718 0.59778,-1.11167 -0.13544,-0.56215 -0.58353,0.43733 -0.66742,0.41152 -1.4528,-0.44698 -0.45843,-0.5011 -0.98342,-0.9053 -1.16665,-0.8982 -0.28786,0.0114 1.85973,2.40516 2.15957,2.40736 0.0613,4.5e-4 0.3292,-0.22457 0.59532,-0.50003 z m -0.17045,-1.63085 c 0.0939,-0.17375 0.0268,-0.51422 -0.14907,-0.75659 -0.17587,-0.24239 -0.22719,-0.4407 -0.11406,-0.4407 0.11313,0 -0.01,-0.27237 -0.27319,-0.60527 -0.56623,-0.71565 -1.31919,-0.81971 -1.09495,-0.15132 0.0838,0.24968 0.0132,0.45396 -0.1569,0.45396 -0.23126,0 -0.22917,0.0915 0.008,0.36316 0.17463,0.19973 0.3175,0.60829 0.3175,0.9079 0,0.60436 1.16128,0.78609 1.46237,0.22886 z m -1.19778,-1.06383 c 0,-0.2595 0.11906,-0.38765 0.26458,-0.28478 0.14552,0.10283 0.26458,0.31519 0.26458,0.47182 0,0.15662 -0.11906,0.28477 -0.26458,0.28477 -0.14552,0 -0.26458,-0.21231 -0.26458,-0.47181 z m 2.64583,0.75659 c 0,-0.15662 -0.11906,-0.28478 -0.26458,-0.28478 -0.14552,0 -0.26459,0.21232 -0.26459,0.47182 0,0.25949 0.11907,0.38764 0.26459,0.28477 0.14552,-0.10283 0.26458,-0.31519 0.26458,-0.47181 z m -7.54062,2.13631 c 0.26338,-0.33291 0.57949,-0.60528 0.70246,-0.60528 0.12297,0 0.22358,0.27237 0.22358,0.60528 0,0.45328 -0.17639,0.60526 -0.70247,0.60526 -0.68571,0 -0.69104,-0.0144 -0.22357,-0.60526 z m -7.00925,-0.29467 c -0.28232,-0.20416 -0.31342,-0.37833 -0.10923,-0.61189 0.33449,-0.38258 1.69452,0.0961 1.69452,0.59642 0,0.38761 -1.05642,0.39792 -1.58529,0.0155 z m 3.81746,-2.49823 c -0.54065,-0.48644 -0.6486,-0.78243 -0.51358,-1.40823 0.28521,-1.32202 0.57229,-1.40027 1.74038,-0.47436 0.60375,0.47858 0.9727,0.9178 0.81989,0.97606 -0.33846,0.12904 -1.63303,-0.80445 -1.63303,-1.17755 0,-0.1473 -0.11906,-0.26783 -0.26458,-0.26783 -0.48294,0 -0.27993,1.48248 0.24719,1.80517 0.28148,0.1723 1.14468,0.31742 1.91823,0.32249 1.59643,0.0103 1.2908,0.41786 -0.50863,0.67802 -0.87348,0.12629 -1.27265,0.026 -1.80587,-0.45377 z m -1.61196,-1.59296 c 0.31344,-0.77299 0.70271,-1.01379 0.70271,-0.4347 0,0.32326 -0.64238,1.18893 -0.88225,1.18893 -0.0695,0 0.0113,-0.3394 0.17954,-0.75423 z m -1.67854,-0.15367 c 0,-0.16645 0.11906,-0.30264 0.26458,-0.30264 0.14552,0 0.26458,0.13619 0.26458,0.30264 0,0.16645 -0.11906,0.30263 -0.26458,0.30263 -0.14552,0 -0.26458,-0.13618 -0.26458,-0.30263 z m 29.057558,3.91458 c -0.0831,-0.98221 -0.0942,-0.9695 -0.37039,0.42366 -0.24402,1.231 -0.23177,1.37571 0.0857,1.01259 0.21402,-0.2448 0.33422,-0.85115 0.28471,-1.43625 z m -23.638328,0.23725 c 1.0536,-0.82285 1.0536,-0.82285 0.18104,-0.82285 -0.47991,0 -1.10164,0.14023 -1.38164,0.31163 -0.38136,0.23346 -0.67776,0.18521 -1.18148,-0.19231 -0.96456,-0.72289 -1.02053,-0.40169 -0.12171,0.69836 0.90201,1.10396 1.09635,1.10437 2.50379,0.006 z m 18.128678,-3.30535 c 0,-0.58667 -0.79747,-0.16343 -1.11361,0.59104 -0.1918,0.45773 -0.46619,0.84334 -0.60975,0.85691 -0.14356,0.0136 -0.58554,0.12964 -0.98218,0.25794 -0.96604,0.31247 -2.68539,-0.3833 -4.61832,-1.86889 -2.258848,-1.73608 -2.430618,-1.80209 -1.407388,-0.54082 1.731528,2.13433 4.974738,3.42292 6.407508,2.54585 0.48358,-0.29603 0.52863,-0.26794 0.36396,0.22697 -0.10774,0.32379 0.27033,0.0543 0.88592,-0.63148 0.59062,-0.65797 1.07386,-1.30485 1.07386,-1.43752 z m 4.94604,0.96116 c -0.21979,-0.35892 -0.67842,-0.87139 -1.01918,-1.13883 -0.43752,-0.34337 -0.34747,-0.12831 0.30648,0.73194 0.97233,1.27907 1.39431,1.51998 0.7127,0.40689 z m -10.32155,-1.56176 c -0.0845,-0.24142 -0.14716,-0.1697 -0.15985,0.18284 -0.0115,0.31904 0.051,0.49778 0.13896,0.39722 0.0879,-0.10054 0.0973,-0.36159 0.0209,-0.58006 z m 2.46509,0.22593 c 0,-0.48199 -0.48005,-0.93151 -0.71174,-0.66649 -0.21766,0.24896 0.12211,1.10258 0.43886,1.10258 0.15008,0 0.27288,-0.19624 0.27288,-0.43609 z m 4.19813,-3.46688 c 0.33162,-0.24029 -7.67231,-0.12425 -8.29917,0.12033 -0.14552,0.0567 1.58089,0.11187 3.83646,0.12249 2.25557,0.0103 4.2638,-0.0987 4.46271,-0.24282 z M 96.918622,151.7494 c -0.0879,-0.10054 -0.31613,-0.1113 -0.50712,-0.0239 -0.21107,0.0967 -0.14837,0.16833 0.15985,0.18284 0.27891,0.0131 0.43518,-0.0583 0.34727,-0.15894 z m -1.67487,-0.77326 c 0.32907,-0.53738 0.47068,-0.5865 0.79716,-0.27657 0.44239,0.41994 1.03378,0.16052 0.87516,-0.3839 -0.0726,-0.24917 -1.72339,-0.36257 -5.70774,-0.39209 -3.08307,-0.0229 -6.25808,-0.13479 -7.05557,-0.24876 -1.32001,-0.18864 -1.44998,-0.15469 -1.44998,0.37869 0,0.79545 1.24169,0.96543 7.24682,0.9921 2.92295,0.0129 4.58534,0.1227 4.26255,0.28136 -0.50997,0.25066 -0.50811,0.26086 0.0511,0.28136 0.31917,0.0117 0.76038,-0.27278 0.98046,-0.63219 z m 4.52313,-0.48334 c 0.364638,0.0797 0.662978,0.0277 0.662978,-0.1157 0,-0.14338 -0.535778,-0.26068 -1.190628,-0.26068 -1.10906,0 -1.43461,0.22531 -1.01653,0.70353 0.0957,0.10958 0.33319,0.0482 0.52765,-0.13649 0.19445,-0.18459 0.65189,-0.27039 1.01653,-0.19066 z m 9.658818,-0.67901 c 0,-0.16645 -0.20836,-0.30055 -0.46302,-0.298 -0.3957,0.003 -0.40532,0.0472 -0.0662,0.298 0.49933,0.3691 0.52917,0.3691 0.52917,0 z m -7.40834,-1.38625 c -0.21828,-0.058 -1.89949,-0.24436 -3.736008,-0.41408 -3.18393,-0.29425 -5.5886,-0.84937 -3.93691,-0.90884 0.64999,-0.0234 1.74298,-0.60612 1.15388,-0.61519 -0.16573,-0.002 -0.2848,-0.24296 -0.26459,-0.53424 0.0402,-0.57968 -2.28617,-0.87793 -7.40769,-0.94969 -2.41737,-0.0339 -2.41737,-0.0339 -2.58797,0.94969 -0.42004,2.42162 -1.12462,2.17511 6.72512,2.35301 10.218448,0.23157 10.488438,0.23478 10.054168,0.11934 z m -3.836458,-4.99885 c -1.01865,-0.13907 -4.50152,-0.29141 -7.73971,-0.33853 -5.88763,-0.0857 -5.88763,-0.0857 -6.28385,-1.03931 -0.5691,-1.36971 -0.49935,-1.78754 0.43053,-2.57931 4.0564,-3.45386 6.48013,-11.74446 5.89029,-20.14826 -0.17524,-2.49674 -0.17524,-2.49674 -1.28145,-2.49674 -4.39468,0 -7.01257,-4.12545 -3.63374,-5.72628 0.61747,-0.29256 0.74051,-0.50645 0.63938,-1.11154 -0.16203,-0.96952 0.45301,-1.73576 1.80201,-2.24499 1.10339,-0.41653 1.80133,-1.77721 1.05713,-2.06095 -1.26495,-0.48229 -1.7345,-2.4204 -0.77302,-3.19069 0.52469,-0.42037 0.53272,-0.48982 0.13229,-1.14373 -0.53071,-0.86667 -0.54779,-1.885276 -0.0397,-2.367602 0.99489,-0.94444 0.24905,-3.409587 -2.767,-9.145518 -1.34606,-2.559947 -1.66312,-4.086567 -0.98284,-4.732356 0.43535,-0.413262 3.7987,-1.035785 4.40566,-0.81544 0.2529,0.09185 0.89189,-0.03958 1.41998,-0.291937 0.52809,-0.252383 1.3807,-0.458877 1.8947,-0.458877 0.86516,0 0.93454,-0.0684 0.93454,-0.921987 0,-0.706422 0.1846,-1.04251 0.7896,-1.437517 1.30354,-0.851081 1.2205,-1.272121 -0.25091,-1.272121 -1.43314,0 -1.77274,-0.455709 -1.44674,-1.941392 0.15312,-0.697843 0.30157,-0.782329 1.37461,-0.782329 1.16764,0 1.18952,-0.01697 0.74524,-0.578507 -1.25707,-1.588818 0.6447,-3.800538 2.62511,-3.052945 1.4602,0.551216 1.88244,1.931718 0.92559,3.026182 -0.52917,0.60527 -0.52917,0.60527 0.79375,0.60527 1.322908,0 1.322908,0 1.322908,1.361856 0,1.361865 0,1.361865 -1.058328,1.361865 -1.18502,0 -1.42642,0.578681 -0.53825,1.290262 0.28605,0.229164 0.61922,0.72318 0.74038,1.097803 0.30342,0.938206 3.353618,2.121418 5.513078,2.13861 3.51048,0.02791 4.20838,1.066153 2.74759,4.087356 -3.49763,7.23382 -4.34884,9.767722 -3.59944,10.714895 0.50698,0.64079 0.53911,1.246269 0.12174,2.294039 -0.25161,0.63166 -0.2279,0.86902 0.1323,1.32427 0.71106,0.89872 0.55728,2.05726 -0.3549,2.6736 -1.13335,0.76577 -0.99099,1.22157 0.63905,2.04613 1.51232,0.76501 2.14145,1.6345 1.87569,2.59228 -0.11911,0.42923 0.0354,0.69392 0.59992,1.02783 2.99841,1.77354 1.4611,4.98366 -2.62597,5.48343 -2.1256,0.25992 -2.12142,0.24499 -1.78284,6.35505 0.46736,8.43395 1.52825,12.04226 4.50509,15.32269 3.79088,4.17749 0.0694,6.29989 -8.899478,5.07544 z m 6.349998,-2.66714 c 1.45521,-0.12187 2.5863,-0.25517 2.51354,-0.29622 -0.4782,-0.26982 -21.138558,-0.33008 -21.283358,-0.0621 -0.47639,0.88166 10.10819,1.08372 18.769818,0.35831 z m -7.805208,-1.80395 c 0,-0.14518 -0.50602,-0.36626 -1.12448,-0.49129 -1.12448,-0.22734 -1.12448,-0.22734 0.19844,-0.608 1.31157,-0.3774 1.31454,-0.38097 0.34634,-0.41662 -1.24494,-0.0459 -1.56437,-0.58955 -0.49066,-0.83519 1.16933,-0.26749 1.26934,-0.71393 0.15993,-0.71393 -0.66064,0 -0.94165,-0.13548 -0.94165,-0.45396 0,-0.31847 0.28101,-0.45395 0.94165,-0.45395 0.57635,0 0.87657,-0.12047 0.77388,-0.31052 -0.0923,-0.1708 -0.47378,-0.27294 -0.84776,-0.22698 -0.37399,0.046 -0.73215,-0.0867 -0.79592,-0.29475 -0.0765,-0.24952 0.18429,-0.39048 0.76599,-0.4141 0.88195,-0.0358 0.88195,-0.0358 0.0882,-0.26683 -0.79375,-0.23102 -0.79375,-0.23102 0.13229,-0.30667 0.92604,-0.0756 0.92604,-0.0756 0.021,-0.26278 -1.26583,-0.26175 -1.39256,-0.94373 -0.17537,-0.94373 0.52145,0 0.94809,-0.13618 0.94809,-0.30263 0,-0.16645 -0.41672,-0.30263 -0.92604,-0.30263 -1.34336,0 -1.28198,-0.88967 0.0661,-0.95879 0.99219,-0.0509 0.99219,-0.0509 0,-0.16958 -1.23435,-0.14769 -1.40319,-0.99009 -0.19843,-0.99009 1.06925,0 1.01502,-0.54251 -0.0662,-0.66176 -1.09412,-0.12066 -1.01815,-0.65259 0.12188,-0.85336 0.59123,-0.10409 0.76019,-0.23404 0.52691,-0.40512 -0.18887,-0.13851 -0.51248,-0.17763 -0.71913,-0.0869 -0.20665,0.0907 -0.45433,0.0194 -0.5504,-0.15834 -0.21018,-0.389 0.42379,-0.90926 0.87685,-0.71957 0.17724,0.0742 0.39263,0.005 0.47864,-0.15449 0.0868,-0.16062 -0.21249,-0.28942 -0.67239,-0.28942 -0.64864,0 -0.80838,-0.1151 -0.73496,-0.52961 0.0572,-0.32303 0.3228,-0.52025 0.68086,-0.50559 0.32288,0.0133 0.58705,-0.0889 0.58705,-0.22697 0,-0.13806 -0.28534,-0.25101 -0.63409,-0.25101 -0.5907,0 -0.63529,-0.1148 -0.65161,-1.67756 -0.021,-2.00895 -0.28385,-3.76988 -0.56275,-3.76988 -0.28225,0 -0.5328,1.60696 -0.5328,3.41726 0,2.22951 -0.2793,1.54525 -0.3833,-0.93905 -0.13361,-3.19147 -0.798,-3.95146 -1.04207,-1.19201 -0.0773,0.87386 -0.27105,3.08688 -0.43058,4.91783 -0.46312,5.31547 -1.47364,9.08426 -3.34721,12.4837 -0.87568,1.58884 -0.87568,1.58884 3.61895,1.58884 2.47205,0 4.49463,-0.11878 4.49463,-0.26395 z m 7.780878,-1.0979 c -0.23837,-0.41613 -0.48627,-0.75659 -0.55088,-0.75659 -0.12967,0 0.11985,0.54824 0.51651,1.13488 0.45557,0.67377 0.48041,0.40036 0.0344,-0.37829 z m -1.62571,-3.48356 c -0.22926,-0.66759 -0.46478,-1.15896 -0.52338,-1.09194 -0.12741,0.14574 0.63675,2.30572 0.81572,2.30572 0.0685,0 -0.0631,-0.5462 -0.29234,-1.21378 z m -1.21193,-3.98775 c -0.0845,-0.24143 -0.14716,-0.16971 -0.15985,0.18283 -0.0115,0.31903 0.051,0.49777 0.13896,0.39722 0.0879,-0.10054 0.0973,-0.3616 0.0209,-0.58005 z m -0.26458,-1.51319 c -0.0845,-0.24142 -0.14716,-0.1697 -0.15986,0.18284 -0.0115,0.31904 0.0511,0.49778 0.13897,0.39722 0.0879,-0.10054 0.0973,-0.36159 0.0209,-0.58006 z m -0.26294,-2.28867 c -0.0665,-0.29129 -0.121,-0.053 -0.121,0.52961 0,0.58257 0.0545,0.82089 0.121,0.52961 0.0666,-0.29129 0.0666,-0.76794 0,-1.05922 z m -8.318318,-11.17096 c -0.18191,-0.084 -0.47956,-0.084 -0.66146,0 -0.1819,0.084 -0.0331,0.15264 0.33073,0.15264 0.3638,0 0.51263,-0.0687 0.33073,-0.15264 z m 5.29166,-0.0237 c -0.9095,-0.0591 -2.39778,-0.0591 -3.30729,0 -0.9095,0.0591 -0.16536,0.10741 1.65365,0.10741 1.81901,0 2.56315,-0.0484 1.65364,-0.10741 z m 4.365628,-0.29533 c -0.40018,-0.0693 -1.05503,-0.0693 -1.45521,0 -0.40018,0.0693 -0.0728,0.12607 0.7276,0.12607 0.80037,0 1.12779,-0.0567 0.72761,-0.12607 z m 4.29948,-1.70734 c 0,-0.3845 -0.12221,-0.21281 -0.50793,0.71356 -0.29703,0.71339 -0.29152,0.72305 0.0965,0.16914 0.2263,-0.32311 0.41147,-0.72032 0.41147,-0.8827 z m -14.155208,0.56744 c 3.31125,-0.14214 4.25367,-0.29195 5.68854,-0.90426 1.719788,-0.7339 1.719788,-0.7339 -4.54684,-0.74967 -3.46909,-0.009 -6.5696,0.11599 -6.94531,0.27938 -1.31623,0.5724 -0.61557,1.89263 0.89099,1.67885 0.51913,-0.0737 2.72981,-0.2106 4.91262,-0.3043 z m 5.02708,-3.46814 c 0.58209,-0.13772 0.90951,-0.26605 0.72761,-0.2852 -0.82407,-0.0867 -0.2549,-0.92473 0.79375,-1.16867 1.220028,-0.28382 -6.54002,-0.19744 -9.525,0.10603 -1.60258,0.16291 -2.1351,0.67889 -1.47726,1.43135 0.25097,0.28706 8.21097,0.21694 9.4809,-0.0835 z m -1.38906,-3.23797 c 1.31263,-0.24817 1.25308,-0.56666 -0.18331,-0.98037 -2.34845,-0.6764 -5.06551,-0.27379 -5.3741,0.79633 -0.11944,0.41421 3.67528,0.53988 5.55741,0.18404 z m 1.38906,-4.05048 c 0.79375,-0.39148 0.79375,-0.39148 0,-0.60997 -1.01881,-0.28045 -6.40951,-0.29505 -7.27465,-0.0197 -0.36304,0.11555 -0.7022,0.46032 -0.75369,0.76617 -0.11458,0.68049 6.60338,0.56627 8.02834,-0.13651 z m 5.291668,-0.29481 c -0.26501,-0.33493 -0.54136,-0.54088 -0.61412,-0.45765 -0.0728,0.0833 0.0845,0.42535 0.34953,0.76029 0.26501,0.33493 0.54136,0.54089 0.61412,0.45767 0.0728,-0.0833 -0.0845,-0.42537 -0.34953,-0.76031 z m -3.512928,-3.036555 c 2.405628,-0.375127 2.607288,-0.36513 3.108858,0.154075 0.295,0.30536 0.53636,0.43068 0.53636,0.27847 0,-0.715938 -1.15373,-1.009018 -3.904848,-0.991964 -1.58325,0.01029 -3.40618,-0.06188 -4.05095,-0.159323 -2.03472,-0.307481 -5.11927,0.181399 -5.22758,0.828548 -0.11109,0.663779 4.95083,0.605509 9.53816,-0.109806 z m -1.91103,-2.726201 c -2.20953,-0.349368 -7.14375,-0.340618 -7.14375,0.0127 0,0.191087 1.58471,0.286927 4.29948,0.260025 3.18904,-0.03157 3.92364,-0.102029 2.84427,-0.272698 z m 4.303118,0.102257 c -0.32542,-0.07183 -0.92074,-0.07366 -1.32292,-0.0046 -0.40218,0.06954 -0.13593,0.128337 0.59168,0.130613 0.7276,0.0023 1.05666,-0.05468 0.73124,-0.126472 z M 91.717192,94.658305 c -0.26514,-0.873866 -0.9731,-2.733292 -1.57325,-4.132068 -1.21531,-2.832587 -1.19125,-2.752886 -0.83104,-2.752886 0.33656,0 1.41712,2.450231 2.52143,5.717459 0.85518,2.530138 1.6727,3.763518 1.29498,1.953699 -0.28425,-1.36191 -2.24034,-7.174123 -2.56604,-7.624559 -0.23453,-0.324353 -0.16872,-0.386027 0.32293,-0.302643 0.53479,0.0907 0.78493,0.649941 1.86786,4.175923 0.6877,2.239162 1.38735,4.123421 1.55477,4.187257 0.22722,0.08659 0.23039,-0.101571 0.0125,-0.742212 -0.45401,-1.334906 -1.82896,-7.01209 -1.82896,-7.551801 0,-0.34087 0.13635,-0.419381 0.46302,-0.266636 2.06088,0.963713 3.24114,0.854936 3.24114,-0.29872 0,-1.380189 0.25661,-1.668843 1.48352,-1.668843 1.27358,0 1.56313,-0.478676 0.47799,-0.790196 -1.06279,-0.305113 -4.66583,0.164985 -5.38772,0.702934 -0.68594,0.511162 -1.67922,0.683695 -3.86603,0.671525 -1.44861,-0.008 -2.76192,0.427548 -2.76192,0.916084 0,0.167639 0.45058,1.158357 1.00129,2.2016 0.55071,1.043243 1.47344,3.016914 2.05052,4.385939 1.04219,2.472433 1.66963,3.266083 1.32193,1.672092 -0.17821,-0.816973 -0.56499,-1.750615 -2.22189,-5.363424 -0.96214,-2.097924 -0.9941,-2.240249 -0.35426,-1.577932 0.26108,0.27025 1.24092,2.197962 2.17743,4.283796 1.80127,4.011864 2.39776,4.833481 1.59981,2.203612 z m 13.629388,-4.784662 c 1.12792,-2.278556 1.4313,-3.131502 1.20565,-3.389616 -0.22566,-0.258114 -0.30154,-0.192276 -0.30154,0.261648 0,0.333595 -0.37473,1.280094 -0.83274,2.103312 -1.10523,1.98655 -2.87533,6.186481 -2.85619,6.776875 0.008,0.25848 0.29929,-0.244972 0.64645,-1.118769 0.34716,-0.873798 1.30943,-2.958854 2.13837,-4.63345 z m -5.21001,-4.06742 c -0.006,-0.77742 -0.322338,0.04369 -0.582538,1.513181 -0.16076,0.907906 -0.16076,0.907906 0.21331,0 0.20573,-0.499346 0.371888,-1.180284 0.369228,-1.513181 z m 4.26204,0.446547 c 0,-0.106947 -0.1786,-0.194347 -0.39688,-0.194347 -0.25253,0 -0.39381,0.284342 -0.38846,0.7818 0.008,0.752748 0.0229,0.759977 0.39688,0.194358 0.21365,-0.323094 0.38846,-0.67491 0.38846,-0.781811 z m -7.276038,-3.304219 c 0.98013,-0.231886 0.92636,-0.252967 -0.72761,-0.285188 -1.03452,-0.02013 -1.78594,0.09253 -1.78594,0.267825 0,0.358404 1.04167,0.365599 2.51355,0.01739 z m -1.07546,-3.315496 c -0.16608,-0.189954 -0.63835,0.57867 -0.63187,1.028373 0.002,0.166449 0.17794,0.04026 0.39009,-0.280544 0.21215,-0.32075 0.32095,-0.657273 0.24178,-0.747829 z m 0.86194,-4.092922 c -0.14114,-0.484945 -1.01512,-0.594147 -1.25166,-0.15639 -0.11311,0.209344 -0.14713,0.555074 -0.0756,0.768286 0.16484,0.491355 1.47285,-0.11166 1.32726,-0.611896 z"
         id="path1" /><text
         xml:space="preserve"
         transform="matrix(0.26458333,0,0,0.26458333,-9.5088936,1.3584135)"
         id="text3"
         style="font-size:42.6667px;line-height:0;text-align:start;letter-spacing:1.8px;writing-mode:lr-tb;direction:ltr;white-space:pre;shape-inside:url(#rect3);fill:#90c2e7;fill-opacity:1;stroke:#4e8098;stroke-width:4.93984;stroke-linecap:square;stroke-opacity:1"
         x="124.54176"
         y="0"><tspan
           x="451.80664"
           y="387.20758"
           id="tspan2"><tspan
             style="font-weight:300;line-height:1.25;font-family:'Perpetua Titling MT';-inkscape-font-specification:'Perpetua Titling MT Light';fill:#62829a"
             id="tspan1">CHESS
</tspan></tspan><tspan
           x="451.80664"
           y="452.27429"
           id="tspan6"><tspan
             style="font-weight:300;line-height:1.8;font-family:'Perpetua Titling MT';-inkscape-font-specification:'Perpetua Titling MT Light';text-align:center;text-anchor:middle;fill:#62829a"
             id="tspan3">PUZZLE</tspan><tspan
             style="font-weight:300;line-height:1.25;font-family:'Perpetua Titling MT';-inkscape-font-specification:'Perpetua Titling MT Light';fill:#62829a"
             id="tspan4">
</tspan></tspan><tspan
           x="451.80664"
           y="517.341"
           id="tspan8"><tspan
             style="font-weight:300;line-height:1.25;font-family:'Perpetua Titling MT';-inkscape-font-specification:'Perpetua Titling MT Light';fill:#62829a"
             id="tspan7">DIRECTORY</tspan></tspan></text></g></g></svg>
