<?xml version="1.0" encoding="UTF-8" standalone="no"?>
<!-- Created with Inkscape (http://www.inkscape.org/) -->

<svg
   width="19.058567mm"
   height="12.806796mm"
   viewBox="0 0 19.058567 12.806796"
   version="1.1"
   id="svg1"
   xml:space="preserve"
   xmlns="http://www.w3.org/2000/svg"
   xmlns:svg="http://www.w3.org/2000/svg"><defs
     id="defs1" /><g
     id="layer1"
     transform="translate(-45.136475,-24.138183)"><path
       style="fill:#4e8098;fill-opacity:1;stroke-width:0.398347"
       d="m 53.712363,36.898033 -0.353679,-0.04038 -0.343018,-0.06864 -0.343016,-0.06865 -0.431278,-0.127103 -0.431275,-0.127098 -0.432849,-0.175983 -0.432854,-0.175978 -0.438224,-0.228645 -0.438228,-0.22864 -0.292169,-0.178359 -0.292169,-0.178358 -0.357124,-0.251468 -0.357128,-0.251464 -0.35479,-0.280828 -0.354794,-0.280827 -0.395249,-0.352289 -0.395248,-0.352291 -0.461498,-0.481557 -0.461495,-0.481553 -0.27828,-0.336746 -0.278276,-0.336746 -0.210511,-0.272602 -0.210512,-0.272606 -0.08684,-0.192425 -0.08684,-0.192429 -0.02927,-0.216476 -0.02927,-0.21648 0.02745,-0.202067 0.02745,-0.202062 0.05046,-0.12594 0.05046,-0.125943 0.09484,-0.145042 0.09484,-0.145041 0.283105,-0.355847 0.283108,-0.355846 0.354464,-0.401152 0.35446,-0.401143 0.363731,-0.354916 0.363726,-0.354913 0.276792,-0.247195 0.276793,-0.24719 0.498149,-0.38877 0.498149,-0.388769 0.404494,-0.267971 0.404494,-0.267971 0.496692,-0.267628 0.496689,-0.267632 0.430566,-0.180227 0.430564,-0.180232 0.353678,-0.111975 0.353678,-0.111969 0.39981,-0.09197 0.399811,-0.09198 0.415187,-0.05592 0.415186,-0.05592 h 0.63047 0.630472 l 0.415187,0.05592 0.415187,0.05592 0.39981,0.09198 0.399811,0.09197 0.353678,0.111969 0.353674,0.111975 0.430567,0.180232 0.430563,0.180227 0.496693,0.267632 0.496688,0.267628 0.404494,0.267971 0.404494,0.267971 0.498153,0.388586 0.498149,0.38859 0.353678,0.315311 0.353678,0.315316 0.508058,0.530834 0.508068,0.530832 0.278495,0.336746 0.278489,0.336743 0.204414,0.270601 0.204409,0.270607 0.0781,0.172015 0.0781,0.172021 0.02805,0.206814 0.02811,0.20682 -0.02926,0.21648 -0.02927,0.216476 -0.08683,0.192429 -0.08684,0.192425 -0.210106,0.272606 -0.210113,0.272602 -0.308088,0.368816 -0.308094,0.368816 -0.432179,0.448994 -0.43217,0.448993 -0.39516,0.352785 -0.395158,0.352778 -0.354794,0.280827 -0.354794,0.280828 -0.357124,0.251464 -0.357124,0.251468 -0.292169,0.177977 -0.292169,0.177983 -0.441621,0.2304 -0.441623,0.230401 -0.429454,0.174603 -0.429457,0.174599 -0.429309,0.126519 -0.429312,0.126525 -0.329606,0.06662 -0.329604,0.06663 -0.415187,0.04626 -0.415188,0.04626 -0.553585,-0.0032 -0.553581,-0.0032 z m 2.00544,-1.090896 0.316534,-0.04857 0.292169,-0.06655 0.29217,-0.06655 0.353677,-0.113132 0.353678,-0.113127 0.377788,-0.15707 0.377788,-0.15707 0.283435,-0.148035 0.283439,-0.148039 0.369054,-0.225063 0.369055,-0.225065 0.415187,-0.298389 0.41519,-0.298386 0.357994,-0.298435 0.357997,-0.298432 0.407027,-0.384854 0.407027,-0.384853 0.370733,-0.416924 0.370732,-0.416924 0.28054,-0.352778 0.280545,-0.35278 0.05225,-0.0793 0.05225,-0.0793 V 30.554268 30.43101 l -0.03583,-0.07006 -0.03584,-0.07006 -0.281579,-0.35278 -0.281589,-0.352779 -0.33,-0.37676 -0.330007,-0.376754 -0.436673,-0.422566 -0.436671,-0.422561 -0.39981,-0.333519 -0.39981,-0.33352 L 59.74031,27.006368 59.294369,26.69309 59.021681,26.526015 58.748996,26.358941 58.383877,26.168078 58.018758,25.977216 57.64166,25.820599 57.264564,25.66398 57.00529,25.57882 56.746014,25.49366 56.432933,25.41652 56.11985,25.33938 55.754191,25.28255 55.388533,25.22572 h -0.722736 -0.722732 l -0.365659,0.05683 -0.365663,0.05683 -0.313081,0.07714 -0.313083,0.07714 -0.259271,0.08516 -0.259275,0.08516 -0.377096,0.156619 -0.3771,0.156617 -0.365116,0.190862 -0.365119,0.190863 -0.272688,0.167074 -0.272687,0.167075 -0.445939,0.313438 -0.445943,0.313438 -0.338302,0.279696 -0.338302,0.279698 -0.261099,0.243637 -0.261098,0.243633 -0.288378,0.288639 -0.28838,0.28864 -0.344101,0.40089 -0.344098,0.400887 -0.216953,0.272602 -0.216956,0.272606 -0.03508,0.07006 -0.03507,0.07006 v 0.123259 0.123255 l 0.05223,0.0793 0.05223,0.0793 0.282504,0.35533 0.282508,0.355329 0.368347,0.414374 0.368345,0.414372 0.407449,0.384855 0.407448,0.384853 0.357998,0.298431 0.357994,0.298437 0.415187,0.298394 0.41519,0.298394 0.34541,0.212367 0.345409,0.212369 0.307354,0.160839 0.307352,0.160839 0.377516,0.156956 0.377517,0.156958 0.353678,0.113127 0.353678,0.113132 0.292168,0.06621 0.29217,0.06621 0.215283,0.03567 0.21528,0.03567 0.292169,0.02678 0.292169,0.02678 0.544595,-0.0135 0.544595,-0.0135 z m -1.376558,-2.615375 -0.216869,-0.02753 -0.244451,-0.0815 -0.244448,-0.0815 -0.215283,-0.125846 -0.215283,-0.125847 -0.169151,-0.150797 -0.169148,-0.150801 -0.147944,-0.180533 -0.147944,-0.180538 -0.10779,-0.184034 -0.10779,-0.184035 -0.07277,-0.186735 -0.07277,-0.186739 -0.05218,-0.268542 -0.05218,-0.26854 0.01662,-0.386957 0.01662,-0.386962 0.0663,-0.240532 0.0663,-0.240532 0.123797,-0.242602 0.123797,-0.242596 0.181904,-0.22986 0.181903,-0.229864 0.191959,-0.159823 0.191956,-0.159823 0.201051,-0.111531 0.20105,-0.111532 0.275646,-0.08693 0.275645,-0.08693 h 0.445943 0.445944 l 0.27679,0.08722 0.276792,0.08722 0.199906,0.112727 0.199904,0.112724 0.191959,0.158335 0.191956,0.158331 0.181904,0.229863 0.181904,0.229861 0.123797,0.242596 0.123797,0.242602 0.0663,0.240532 0.0663,0.240532 0.01662,0.386962 0.01663,0.386957 -0.05218,0.26854 -0.05218,0.268542 -0.07277,0.186739 -0.07276,0.186735 -0.107594,0.184034 -0.107591,0.184035 -0.144205,0.176392 -0.144205,0.176391 -0.188465,0.168049 -0.188465,0.168053 -0.276793,0.145239 -0.276789,0.145235 -0.23066,0.05962 -0.23066,0.05962 -0.261417,0.01689 -0.261412,0.01689 z m 0.757181,-1.107866 0.167047,-0.05111 0.157413,-0.09315 0.157413,-0.09316 0.175145,-0.184103 0.175147,-0.184105 0.10573,-0.224861 0.105733,-0.224863 0.03072,-0.172749 0.03072,-0.172749 v -0.154402 -0.154398 l -0.03399,-0.169953 -0.03398,-0.169951 -0.09301,-0.205693 -0.093,-0.205692 -0.203619,-0.211233 -0.203622,-0.211228 -0.179187,-0.09038 -0.179186,-0.09038 -0.205246,-0.04536 -0.205247,-0.04536 h -0.107649 -0.107637 l -0.205249,0.04536 -0.205245,0.04536 -0.179186,0.09038 -0.179189,0.09038 -0.20362,0.211228 -0.203619,0.211233 -0.09301,0.205692 -0.093,0.205693 -0.03399,0.169951 -0.03398,0.169953 v 0.184111 0.184108 l 0.04709,0.188534 0.04709,0.188532 0.09666,0.189126 0.09666,0.189126 0.168733,0.175954 0.168736,0.175958 0.134918,0.08245 0.134918,0.08245 0.175372,0.05847 0.175371,0.05847 0.278901,0.0019 0.278897,0.0019 z"
       id="path56" /></g></svg>
