<?xml version="1.0" encoding="UTF-8" standalone="no"?>
<!-- Created with Inkscape (http://www.inkscape.org/) -->

<svg
   width="15.940435mm"
   height="16.518929mm"
   viewBox="0 0 15.940435 16.518929"
   version="1.1"
   id="svg1"
   xml:space="preserve"
   xmlns="http://www.w3.org/2000/svg"
   xmlns:svg="http://www.w3.org/2000/svg"><defs
     id="defs1" /><g
     id="layer1"
     transform="translate(-232.97561,-22.73105)"><g
       id="g55"
       transform="matrix(1.0397684,0,0,0.97926449,-19.416502,-4.4539503)"><g
         id="g54"
         transform="translate(-115.2652,-100.28072)"><g
           id="g53"
           transform="translate(38.965099,-3.5045694)"><path
             style="fill:#4e8098;fill-opacity:1"
             d="m 324.60307,148.39339 -0.0797,-0.0173 -0.10241,-0.047 -0.10241,-0.047 -0.0986,-0.0799 -0.0986,-0.0799 -0.0675,-0.0906 -0.0675,-0.0906 -0.0491,-0.10748 -0.0491,-0.10748 -0.0289,-0.135 -0.0289,-0.135 -2.8e-4,-2.43011 -2.9e-4,-2.43012 h 0.47851 0.4785 l 0.005,2.13492 0.005,2.13492 0.0441,0.10542 0.0441,0.10543 0.0709,0.0816 0.0709,0.0816 0.11498,0.0607 0.11499,0.0607 h 3.84249 3.84248 l 0.11661,-0.0607 0.11661,-0.0607 0.0688,-0.078 0.0688,-0.078 0.0445,-0.0985 0.0445,-0.0985 0.005,-1.33893 0.005,-1.33894 -0.0147,-5.56659 -0.0147,-5.5666 -0.0442,-0.0985 -0.0442,-0.0985 -0.0669,-0.0757 -0.0669,-0.0757 -0.0994,-0.0577 -0.0994,-0.0577 h -3.86165 -3.86165 l -0.0886,0.0451 -0.0886,0.0451 -0.0785,0.0781 -0.0785,0.0781 -0.0533,0.11936 -0.0533,0.11936 -0.005,2.12437 -0.005,2.12437 h -0.47912 -0.47913 l 0.005,-2.48283 0.005,-2.48282 0.0411,-0.11821 0.0411,-0.11821 0.0493,-0.0858 0.0493,-0.0858 0.0597,-0.0748 0.0597,-0.0748 0.0921,-0.0744 0.0921,-0.0744 0.13152,-0.0579 0.13152,-0.0579 4.43659,-0.006 4.43658,-0.006 0.12457,0.0225 0.12457,0.0225 0.12457,0.0662 0.12457,0.0661 0.12597,0.13873 0.12597,0.13872 0.0507,0.11598 0.0507,0.11597 0.0293,0.12567 0.0293,0.12567 v 7.50815 7.50816 l -0.0293,0.12395 -0.0293,0.12396 -0.0599,0.12362 -0.0599,0.12361 -0.12088,0.12441 -0.12087,0.12441 -0.12102,0.0635 -0.12101,0.0635 -0.0857,0.0217 -0.0857,0.0217 -4.427,-0.002 -4.42701,-0.002 z m 2.57104,-5.0901 -0.0767,-0.0312 -0.0892,-0.10259 -0.0892,-0.1026 -0.0209,-0.0827 -0.0209,-0.0827 3.1e-4,-0.10543 3.1e-4,-0.10543 0.039,-0.0949 0.039,-0.0949 0.90376,-0.99604 0.90375,-0.99605 -4.68503,-0.006 -4.68503,-0.006 -0.0994,-0.0577 -0.0994,-0.0577 -0.0487,-0.0703 -0.0487,-0.0703 -0.0291,-0.0908 -0.0291,-0.0908 4.2e-4,-0.0975 4.2e-4,-0.0975 0.039,-0.0949 0.039,-0.0949 0.0516,-0.0607 0.0516,-0.0607 0.0958,-0.0498 0.0958,-0.0498 4.66609,-2e-4 4.6661,-2.1e-4 -0.89332,-0.98575 -0.89332,-0.98575 -0.0312,-0.0682 -0.0312,-0.0682 -0.0117,-0.0936 -0.0117,-0.0936 0.013,-0.0954 0.013,-0.0954 0.0709,-0.10672 0.0709,-0.10672 0.0948,-0.0526 0.0948,-0.0526 h 0.12737 0.12738 l 0.0803,0.0474 0.0803,0.0474 1.43635,1.62345 1.43636,1.62346 -0.12219,0.13719 -0.12219,0.1372 -1.30569,1.47599 -1.30569,1.47599 -0.0774,0.0504 -0.0774,0.0504 -0.12818,0.008 -0.12818,0.008 z"
             id="path52" /></g></g></g></g></svg>
