<?xml version="1.0" encoding="UTF-8" standalone="no"?>
<!-- Created with Inkscape (http://www.inkscape.org/) -->

<svg
   width="17.281454mm"
   height="19.984995mm"
   viewBox="0 0 17.281454 19.984995"
   version="1.1"
   id="svg1"
   xml:space="preserve"
   xmlns="http://www.w3.org/2000/svg"
   xmlns:svg="http://www.w3.org/2000/svg"><defs
     id="defs1" /><g
     id="layer1"
     transform="translate(-151.60253,-21.501191)"><g
       id="g56"
       transform="matrix(1.0792958,0,0,1.1758311,-10.536997,-4.7001798)"><path
         style="fill:#4e8098;fill-opacity:1;stroke-width:0.525238"
         d="m 158.49421,39.247409 -0.15666,-0.03177 -0.11682,-0.04039 -0.11682,-0.04039 -0.22978,-0.12432 -0.2298,-0.124311 -0.19695,-0.156359 -0.19696,-0.15636 -0.59622,-0.626778 -0.59619,-0.626778 -0.007,0.0098 -0.007,0.0098 -0.10201,0.143011 -0.10201,0.143021 -0.16668,0.176997 -0.16666,0.176996 -0.24401,0.171131 -0.24402,0.171121 -0.18106,0.08565 -0.18108,0.08566 -0.18003,0.05453 -0.18,0.05453 -0.13123,0.03066 -0.13124,0.03066 h -0.37203 -0.37204 l -0.13124,-0.03066 -0.13123,-0.03066 -0.18601,-0.05591 -0.18601,-0.05591 -0.24074,-0.125055 -0.24072,-0.125054 -0.19049,-0.144829 -0.19049,-0.144829 -0.19325,-0.212543 -0.19323,-0.212543 -0.10355,-0.154551 -0.10355,-0.15454 -0.0988,-0.205513 -0.0987,-0.205491 -0.0735,-0.244215 -0.0733,-0.244207 -0.03,-0.162684 -0.03,-0.162686 0.001,-0.383471 0.001,-0.383471 0.0493,-0.244032 0.0493,-0.244023 0.0873,-0.232409 0.0873,-0.232408 0.0894,-0.162686 0.0895,-0.162674 0.11492,-0.164283 0.11492,-0.164272 0.13924,-0.149731 0.13925,-0.149732 0.1422,-0.114241 0.14221,-0.114239 0.009,-0.0074 0.009,-0.0074 -0.61096,-0.656523 -0.61094,-0.656521 -0.1391,-0.209175 -0.13909,-0.209164 -0.10805,-0.22803 -0.10806,-0.22804 -0.0583,-0.225156 -0.0583,-0.225156 8.4e-4,-0.325371 8.5e-4,-0.325368 0.0468,-0.18593 0.0468,-0.18592 0.13064,-0.278889 0.13064,-0.27889 0.148,-0.209164 0.14799,-0.209164 0.64646,-0.688452 0.64648,-0.688433 0.1431,-0.07344 0.1431,-0.07344 0.1477,-0.02442 0.14769,-0.02442 0.15391,0.02754 0.15389,0.02754 0.15284,0.08115 0.15282,0.08115 0.11528,0.119785 0.11528,0.119777 0.0584,0.106343 0.0584,0.106332 0.0682,0.276915 0.0682,0.276916 0.0771,0.162905 0.0771,0.162896 0.17764,0.188188 0.17768,0.188187 0.18601,0.09693 0.18601,0.09694 0.15319,0.03406 0.15319,0.03396 h 0.14221 0.14222 l 0.15319,-0.03396 0.15318,-0.03406 0.18602,-0.09671 0.18601,-0.0967 0.1775,-0.189933 0.17748,-0.189931 0.0911,-0.196028 0.091,-0.196037 0.032,-0.162676 0.032,-0.162684 V 27.54389 27.392827 l -0.032,-0.162683 -0.032,-0.162685 -0.0915,-0.197258 -0.0915,-0.197258 -0.17691,-0.186784 -0.17692,-0.186782 -0.15476,-0.08565 -0.15477,-0.08566 -0.26017,-0.07078 -0.26017,-0.07078 -0.11836,-0.07536 -0.11836,-0.07536 -0.1039,-0.123099 -0.10391,-0.123108 -0.069,-0.15019 -0.069,-0.150182 -0.0255,-0.173655 -0.0255,-0.173656 0.0273,-0.157065 0.0273,-0.157067 0.0679,-0.139697 0.0679,-0.139687 0.6473,-0.686175 0.64729,-0.686175 0.19696,-0.157561 0.19696,-0.157572 0.26262,-0.137962 0.2626,-0.137963 0.17509,-0.05031 0.17507,-0.05031 0.30638,-5.33e-4 0.30637,-5.41e-4 0.18604,0.05252 0.18601,0.05252 0.19884,0.09966 0.19884,0.09965 0.17318,0.122979 0.1732,0.122971 0.12041,0.105184 0.12041,0.105184 0.56288,0.593087 0.56289,0.593085 0.007,-0.01036 0.007,-0.01036 0.1,-0.139439 0.1,-0.13945 0.13925,-0.152733 0.13923,-0.152733 0.16414,-0.128828 0.16414,-0.128837 0.15319,-0.09501 0.15319,-0.095 0.19744,-0.08069 0.19745,-0.08069 0.17363,-0.04829 0.17361,-0.04829 0.19793,-0.02599 0.19791,-0.02599 0.25168,0.01249 0.25167,0.01249 0.21884,0.05049 0.21884,0.05048 0.21885,0.09043 0.21885,0.09042 0.17421,0.105541 0.17422,0.105541 0.15654,0.127321 0.15653,0.127322 0.17465,0.193201 0.17465,0.193199 0.10983,0.172996 0.10983,0.172994 0.0877,0.185744 0.0877,0.185737 0.0571,0.168873 0.0571,0.168881 0.0474,0.237836 0.0475,0.237833 8.5e-4,0.360236 8.5e-4,0.360228 -0.0376,0.201784 -0.0376,0.201773 -0.0549,0.181698 -0.055,0.181688 -0.11921,0.255645 -0.11922,0.255645 -0.12858,0.18143 -0.12856,0.181421 -0.11824,0.132684 -0.11824,0.132683 -0.13628,0.120189 -0.13627,0.120198 -0.0389,0.02332 -0.0389,0.02341 0.58244,0.62305 0.58244,0.62306 0.16249,0.2333 0.16251,0.233309 0.10082,0.208274 0.10083,0.208265 0.0576,0.194879 0.0576,0.194872 0.0252,0.22892 0.0252,0.228921 -0.0263,0.209752 -0.0263,0.209753 -0.057,0.191492 -0.057,0.191501 -0.0659,0.139441 -0.0659,0.13944 -0.0988,0.162684 -0.0987,0.162694 -0.13242,0.174297 -0.13243,0.174309 -0.614,0.651702 -0.61403,0.651693 -0.0995,0.05058 -0.0995,0.05058 -0.14072,0.03829 -0.14073,0.03829 -0.14087,-0.01534 -0.14103,-0.01534 -0.13316,-0.04756 -0.13315,-0.04756 -0.13702,-0.103802 -0.13703,-0.103803 -0.0865,-0.121677 -0.0865,-0.121676 -0.0352,-0.08933 -0.0352,-0.08933 -0.0547,-0.234696 -0.0547,-0.234696 -0.0795,-0.163014 -0.0795,-0.163006 -0.17611,-0.188179 -0.17611,-0.188187 -0.18601,-0.09694 -0.18601,-0.09694 -0.15319,-0.03406 -0.15321,-0.03406 h -0.1422 -0.14221 l -0.15319,0.03406 -0.15318,0.03406 -0.18602,0.09694 -0.18604,0.09694 -0.1772,0.188187 -0.1772,0.188179 -0.0912,0.197551 -0.0914,0.197543 -0.032,0.162684 -0.032,0.162685 v 0.151063 0.151071 l 0.032,0.162684 0.032,0.162677 0.0911,0.19755 0.091,0.197543 0.17742,0.186149 0.17741,0.186131 0.16414,0.0873 0.16414,0.0873 0.21885,0.0581 0.21884,0.05821 0.118,0.06105 0.11801,0.06096 0.12575,0.133592 0.12574,0.133583 0.0801,0.172094 0.0801,0.172096 0.0233,0.166411 0.0232,0.166394 -0.0242,0.14626 -0.0242,0.146252 -0.0688,0.151062 -0.069,0.151073 -0.62619,0.663921 -0.62617,0.663913 -0.19144,0.157213 -0.19146,0.157194 -0.18077,0.110478 -0.18078,0.110477 -0.14487,0.06159 -0.14488,0.06151 -0.13939,0.03617 -0.13939,0.03617 -0.25167,0.01013 -0.25166,0.01013 z m 0.62737,-1.603501 0.12011,-0.06666 0.12041,-0.0995 0.12041,-0.0995 0.28223,-0.301949 0.28225,-0.301951 -0.12901,-0.06921 -0.12901,-0.06931 -0.17189,-0.131068 -0.17191,-0.131077 -0.14131,-0.132903 -0.14132,-0.132895 -0.13821,-0.182752 -0.1382,-0.182771 -0.10414,-0.185719 -0.10415,-0.185718 -0.0752,-0.195789 -0.0751,-0.195789 -0.0525,-0.219869 -0.0525,-0.219878 -0.0245,-0.250062 -0.0243,-0.250073 0.0148,-0.197543 0.0148,-0.19755 0.0319,-0.197441 0.0319,-0.197443 0.0639,-0.202361 0.0637,-0.202372 0.0912,-0.19264 0.0912,-0.19265 0.1039,-0.162858 0.10391,-0.162877 0.16126,-0.192549 0.16127,-0.192547 0.16159,-0.136036 0.16155,-0.136023 0.16669,-0.105085 0.1667,-0.105073 0.19618,-0.08601 0.19613,-0.08601 0.20699,-0.05572 0.20698,-0.05572 0.24798,-0.02313 0.24795,-0.02304 0.23522,0.02194 0.23521,0.02194 0.10948,0.02542 0.10947,0.02542 0.17507,0.05913 0.17507,0.05912 0.19886,0.09953 0.19883,0.09953 0.17256,0.12365 0.17257,0.123659 0.19457,0.199185 0.19461,0.199177 0.12945,0.18245 0.12945,0.182441 0.09,0.174161 0.09,0.174149 0.2828,-0.298498 0.2828,-0.298499 0.10011,-0.139448 0.10012,-0.139441 0.0626,-0.139448 0.0626,-0.139441 1e-5,-0.121547 10e-6,-0.121539 -0.0364,-0.09923 -0.0364,-0.09924 -0.0989,-0.162685 -0.0989,-0.162684 -1.02266,-1.092313 -1.02264,-1.092303 -0.0487,-0.170946 -0.0486,-0.170938 0.0119,-0.13832 0.0118,-0.138302 0.0565,-0.122768 0.0565,-0.122778 0.0885,-0.09301 0.0885,-0.093 0.0938,-0.04977 0.0938,-0.04977 0.16246,-0.03314 0.16246,-0.03314 0.10947,-0.04645 0.10948,-0.04645 0.10947,-0.06435 0.10947,-0.06435 0.16796,-0.1793 0.16797,-0.179302 0.0988,-0.217482 0.0987,-0.21749 0.0233,-0.137907 0.0232,-0.137899 v -0.177955 -0.177933 l -0.0431,-0.1792 -0.0431,-0.179191 -0.0823,-0.167321 -0.0823,-0.167321 -0.16487,-0.174307 -0.16486,-0.174306 -0.15611,-0.08749 -0.15609,-0.08749 -0.16991,-0.04608 -0.1699,-0.04617 h -0.17902 -0.17903 l -0.16873,0.0458 -0.16874,0.04581 -0.15597,0.08704 -0.15596,0.08704 -0.12694,0.12487 -0.12708,0.12488 -0.0795,0.114993 -0.0795,0.114983 -0.0633,0.160051 -0.0633,0.160058 -0.0353,0.181863 -0.0353,0.181863 -0.05,0.104583 -0.05,0.104582 -0.0827,0.08749 -0.0827,0.08749 -0.11196,0.05821 -0.11196,0.0582 -0.1434,0.01423 -0.14339,0.01423 -0.15097,-0.05279 -0.15095,-0.05278 -1.00668,-1.061723 -1.00669,-1.061724 -0.12679,-0.09851 -0.12678,-0.0985 -0.13584,-0.0683 -0.13582,-0.0683 h -0.12026 -0.12041 l -0.13791,0.06932 -0.1379,0.06931 -0.1247,0.103101 -0.12471,0.103089 -0.28217,0.30184 -0.28215,0.301859 0.0961,0.05187 0.0961,0.05187 0.17507,0.123219 0.17509,0.123209 0.13523,0.126441 0.13524,0.12645 0.1253,0.148005 0.12531,0.147997 0.11433,0.18592 0.11433,0.185929 0.0696,0.147078 0.0694,0.147078 0.0744,0.236393 0.0744,0.236393 0.0338,0.206402 0.0338,0.206393 -7e-5,0.316519 -6e-5,0.316519 -0.034,0.206228 -0.034,0.206216 -0.0553,0.188868 -0.0553,0.188867 -0.11788,0.255643 -0.11789,0.255655 -0.14042,0.197542 -0.14043,0.197552 -0.13924,0.149355 -0.13925,0.149364 -0.17144,0.135282 -0.17144,0.13529 -0.14147,0.084 -0.14146,0.084 -0.17154,0.07684 -0.17152,0.07684 -0.2268,0.05948 -0.22683,0.05948 -0.23525,0.02461 -0.23527,0.02461 -0.23525,-0.02497 -0.23526,-0.02497 -0.17506,-0.04379 -0.17508,-0.04379 -0.16414,-0.06233 -0.16413,-0.06233 -0.17295,-0.09486 -0.17297,-0.09485 -0.1717,-0.130343 -0.17169,-0.130333 -0.18551,-0.190639 -0.1855,-0.190648 -0.11197,-0.16844 -0.11196,-0.168441 -0.0886,-0.170682 -0.0886,-0.17068 -0.2828,0.298507 -0.2828,0.298509 -0.10011,0.13944 -0.10012,0.139439 -0.0626,0.13945 -0.0626,0.139441 -1e-5,0.119095 -3e-5,0.119088 0.0326,0.0983 0.0326,0.0983 0.10236,0.16609 0.10237,0.166072 0.99913,1.069068 0.99913,1.069077 0.0352,0.06068 0.0353,0.06068 0.0371,0.135281 0.0371,0.135272 -0.0134,0.13741 -0.0134,0.137403 -0.0423,0.101658 -0.0423,0.101648 -0.0989,0.112212 -0.0988,0.11222 -0.0954,0.05058 -0.0954,0.05058 -0.16294,0.0358 -0.16292,0.0358 -0.12041,0.05031 -0.12041,0.05031 -0.11694,0.07831 -0.11706,0.07831 -0.11018,0.109296 -0.11019,0.109296 -0.0815,0.127827 -0.0815,0.127816 -0.0483,0.116206 -0.0483,0.116204 -0.0312,0.139451 -0.0312,0.139439 2e-4,0.209164 2.1e-4,0.209165 0.0219,0.104583 0.0219,0.104583 0.0467,0.127827 0.0467,0.127818 0.0961,0.156038 0.0961,0.156028 0.12813,0.122862 0.12812,0.122859 0.15298,0.08749 0.153,0.08749 0.16991,0.04608 0.16991,0.04608 h 0.17902 0.179 l 0.16875,-0.04581 0.16874,-0.04581 0.15688,-0.08758 0.15686,-0.08749 0.13657,-0.135648 0.13658,-0.135649 0.0889,-0.149226 0.0889,-0.149227 0.0409,-0.110477 0.0409,-0.110488 0.0384,-0.18592 0.0384,-0.185929 0.0498,-0.105519 0.0498,-0.105519 0.10118,-0.09897 0.10118,-0.09897 0.10331,-0.0493 0.1032,-0.04929 0.17508,-5.32e-4 0.17506,-5.41e-4 0.12041,0.05508 0.12041,0.05508 1.01763,1.071528 1.01762,1.071529 0.15321,0.10602 0.15318,0.106009 0.0874,0.03865 0.0874,0.03865 0.14251,-0.0064 0.1425,-0.0064 z"
         id="path55" /></g></g></svg>
